{"asset":{"version":"2.0","generator":"VECTARY"},"nodes":[{"translation":[0.00235,0.062,1.0658141036401503e-17],"scale":[0.0007716800000000001,0.00027,0.001],"rotation":[-0.5,0.4999999999999999,0.5,0.5000000000000001],"name":"3D Text","children":[1,2,3,4,5,6,7]},{"translation":[-104.82896900177002,0,0],"scale":[1,1,1],"rotation":[0,0,0,1],"name":"3D Text - A","mesh":0},{"translation":[-76.35240650177002,0,0],"scale":[1,1,1],"rotation":[0,0,0,1],"name":"3D Text - P","mesh":1},{"translation":[-49.26012134552002,0,0],"scale":[1,1,1],"rotation":[0,0,0,1],"name":"3D Text - E","mesh":2},{"translation":[-24.23326587677002,0,0],"scale":[1,1,1],"rotation":[0,0,0,1],"name":"3D Text - X","mesh":3},{"translation":[13.42786693572998,0,0],"scale":[1,1,1],"rotation":[0,0,0,1],"name":"3D Text - B","mesh":4},{"translation":[42.58558177947998,0,0],"scale":[1,1,1],"rotation":[0,0,0,1],"name":"3D Text - O","mesh":5},{"translation":[77.63196849822998,0,0],"scale":[1,1,1],"rotation":[0,0,0,1],"name":"3D Text - T","mesh":6},{"translation":[0,0,0],"scale":[0.00011,0.001,0.001],"rotation":[-0.7071067811865475,0,0,0.7071067811865476],"name":"Box","mesh":7},{"translation":[-0.005,0.083,1.4210854715202004e-17],"scale":[0.0008609937306357385,0.0008609937306357385,0.0008609937306357385],"rotation":[0,-0.7071067811865475,0,0.7071067811865476],"name":"icon","mesh":8}],"materials":[{"pbrMetallicRoughness":{"baseColorFactor":[0.011126082368383245,0.020951131914781092,0.348864834082879,1],"metallicFactor":0,"roughnessFactor":0.2},"name":"Azul","emissiveFactor":[0,0,0],"extensions":{},"alphaMode":"OPAQUE","doubleSided":false},{"pbrMetallicRoughness":{"baseColorFactor":[0.011126082368383245,0.020951131914781092,0.348864834082879,1],"metallicFactor":0,"roughnessFactor":0.2},"name":"Azul","emissiveFactor":[0,0,0],"extensions":{},"alphaMode":"OPAQUE","doubleSided":false},{"pbrMetallicRoughness":{"baseColorFactor":[0.011126082368383245,0.020951131914781092,0.348864834082879,1],"metallicFactor":0,"roughnessFactor":0.2},"name":"Azul","emissiveFactor":[0,0,0],"extensions":{},"alphaMode":"OPAQUE","doubleSided":false},{"pbrMetallicRoughness":{"baseColorFactor":[0.011126082368383245,0.020951131914781092,0.348864834082879,1],"metallicFactor":0,"roughnessFactor":0.2},"name":"Azul","emissiveFactor":[0,0,0],"extensions":{},"alphaMode":"OPAQUE","doubleSided":false},{"pbrMetallicRoughness":{"baseColorFactor":[0.011126082368383245,0.020951131914781092,0.348864834082879,1],"metallicFactor":0,"roughnessFactor":0.2},"name":"Azul","emissiveFactor":[0,0,0],"extensions":{},"alphaMode":"OPAQUE","doubleSided":false},{"pbrMetallicRoughness":{"baseColorFactor":[0.011126082368383245,0.020951131914781092,0.348864834082879,1],"metallicFactor":0,"roughnessFactor":0.2},"name":"Azul","emissiveFactor":[0,0,0],"extensions":{},"alphaMode":"OPAQUE","doubleSided":false},{"pbrMetallicRoughness":{"baseColorFactor":[0.011126082368383245,0.020951131914781092,0.348864834082879,1],"metallicFactor":0,"roughnessFactor":0.2},"name":"Azul","emissiveFactor":[0,0,0],"extensions":{},"alphaMode":"OPAQUE","doubleSided":false},{"pbrMetallicRoughness":{"baseColorFactor":[0.8670237934377415,0.8670237934377415,0.8670237934377415,1],"metallicFactor":0,"roughnessFactor":0.26},"name":"Charlotte","emissiveFactor":[0,0,0],"extensions":{},"alphaMode":"OPAQUE","doubleSided":false},{"pbrMetallicRoughness":{"baseColorFactor":[1,1,1,1],"baseColorTexture":{"index":0,"extensions":{"KHR_texture_transform":{"offset":[0,0],"scale":[1,1],"rotation":0}},"texCoord":0},"metallicFactor":0,"roughnessFactor":0.2},"name":"Windsurf","emissiveTexture":{"index":1,"extensions":{"KHR_texture_transform":{"offset":[0,0],"scale":[1,1],"rotation":0}},"texCoord":0},"emissiveFactor":[0,0,0],"extensions":{},"alphaMode":"OPAQUE","doubleSided":false}],"meshes":[{"primitives":[{"mode":4,"attributes":{"POSITION":1,"NORMAL":2,"TEXCOORD_0":3},"material":0,"indices":0}]},{"primitives":[{"mode":4,"attributes":{"POSITION":5,"NORMAL":6,"TEXCOORD_0":7},"material":1,"indices":4}]},{"primitives":[{"mode":4,"attributes":{"POSITION":9,"NORMAL":10,"TEXCOORD_0":11},"material":2,"indices":8}]},{"primitives":[{"mode":4,"attributes":{"POSITION":13,"NORMAL":14,"TEXCOORD_0":15},"material":3,"indices":12}]},{"primitives":[{"mode":4,"attributes":{"POSITION":17,"NORMAL":18,"TEXCOORD_0":19},"material":4,"indices":16}]},{"primitives":[{"mode":4,"attributes":{"POSITION":21,"NORMAL":22,"TEXCOORD_0":23},"material":5,"indices":20}]},{"primitives":[{"mode":4,"attributes":{"POSITION":25,"NORMAL":26,"TEXCOORD_0":27},"material":6,"indices":24}]},{"primitives":[{"mode":4,"attributes":{"POSITION":29,"NORMAL":30,"TEXCOORD_0":31},"material":7,"indices":28}]},{"primitives":[{"mode":4,"attributes":{"POSITION":33,"NORMAL":34,"TEXCOORD_0":35},"material":8,"indices":32}]}],"accessors":[{"bufferView":0,"byteOffset":0,"componentType":5125,"count":252,"type":"SCALAR"},{"bufferView":1,"byteOffset":0,"componentType":5126,"count":171,"max":[31.641000747680664,2.194567075129326e-15,35.84000015258789],"min":[0,-15,0],"type":"VEC3"},{"bufferView":2,"byteOffset":0,"componentType":5126,"count":171,"type":"VEC3"},{"bufferView":3,"byteOffset":0,"componentType":5126,"count":171,"type":"VEC2"},{"bufferView":4,"byteOffset":0,"componentType":5125,"count":516,"type":"SCALAR"},{"bufferView":5,"byteOffset":0,"componentType":5126,"count":340,"max":[27.538999557495117,2.1855658677570914e-15,35.69300079345703],"min":[4.9070000648498535,-15,0],"type":"VEC3"},{"bufferView":6,"byteOffset":0,"componentType":5126,"count":340,"type":"VEC3"},{"bufferView":7,"byteOffset":0,"componentType":5126,"count":340,"type":"VEC2"},{"bufferView":8,"byteOffset":0,"componentType":5125,"count":132,"type":"SCALAR"},{"bufferView":9,"byteOffset":0,"componentType":5126,"count":84,"max":[24.80500030517578,2.1855658677570914e-15,35.69300079345703],"min":[4.9070000648498535,-15,0],"type":"VEC3"},{"bufferView":10,"byteOffset":0,"componentType":5126,"count":84,"type":"VEC3"},{"bufferView":11,"byteOffset":0,"componentType":5126,"count":84,"type":"VEC2"},{"bufferView":12,"byteOffset":0,"componentType":5125,"count":132,"type":"SCALAR"},{"bufferView":13,"byteOffset":0,"componentType":5126,"count":96,"max":[28.66200065612793,2.1855658677570914e-15,35.69300079345703],"min":[0.19499999284744263,-15,0],"type":"VEC3"},{"bufferView":14,"byteOffset":0,"componentType":5126,"count":96,"type":"VEC3"},{"bufferView":15,"byteOffset":0,"componentType":5126,"count":96,"type":"VEC2"},{"bufferView":16,"byteOffset":0,"componentType":5125,"count":1032,"type":"SCALAR"},{"bufferView":17,"byteOffset":0,"componentType":5126,"count":682,"max":[29.638999938964844,2.1855658677570914e-15,35.69300079345703],"min":[4.9070000648498535,-15,0],"type":"VEC3"},{"bufferView":18,"byteOffset":0,"componentType":5126,"count":682,"type":"VEC3"},{"bufferView":19,"byteOffset":0,"componentType":5126,"count":682,"type":"VEC2"},{"bufferView":20,"byteOffset":0,"componentType":5125,"count":960,"type":"SCALAR"},{"bufferView":21,"byteOffset":0,"componentType":5126,"count":640,"max":[35.888999938964844,2.2199784870634287e-15,36.255001068115234],"min":[3.052000045776367,-15,-0.4880000054836273],"type":"VEC3"},{"bufferView":22,"byteOffset":0,"componentType":5126,"count":640,"type":"VEC3"},{"bufferView":23,"byteOffset":0,"componentType":5126,"count":640,"type":"VEC2"},{"bufferView":24,"byteOffset":0,"componentType":5125,"count":84,"type":"SCALAR"},{"bufferView":25,"byteOffset":0,"componentType":5126,"count":50,"max":[27.19700050354004,2.1855658677570914e-15,35.69300079345703],"min":[0.4390000104904175,-15,0],"type":"VEC3"},{"bufferView":26,"byteOffset":0,"componentType":5126,"count":50,"type":"VEC3"},{"bufferView":27,"byteOffset":0,"componentType":5126,"count":50,"type":"VEC2"},{"bufferView":28,"byteOffset":0,"componentType":5125,"count":2916,"type":"SCALAR"},{"bufferView":29,"byteOffset":0,"componentType":5126,"count":596,"max":[33.5,83,166],"min":[-33.5,-83,0],"type":"VEC3"},{"bufferView":30,"byteOffset":0,"componentType":5126,"count":596,"type":"VEC3"},{"bufferView":31,"byteOffset":0,"componentType":5126,"count":596,"type":"VEC2"},{"bufferView":32,"byteOffset":0,"componentType":5125,"count":6,"type":"SCALAR"},{"bufferView":33,"byteOffset":0,"componentType":5126,"count":4,"max":[94.5,94.5,0],"min":[-94.5,-94.5,0],"type":"VEC3"},{"bufferView":34,"byteOffset":0,"componentType":5126,"count":4,"type":"VEC3"},{"bufferView":35,"byteOffset":0,"componentType":5126,"count":4,"type":"VEC2"}],"bufferViews":[{"buffer":0,"byteOffset":0,"byteLength":1008,"target":34963},{"buffer":0,"byteOffset":1008,"byteLength":2052,"target":34962},{"buffer":0,"byteOffset":3060,"byteLength":2052,"target":34962},{"buffer":0,"byteOffset":5112,"byteLength":1368,"target":34962},{"buffer":0,"byteOffset":6480,"byteLength":2064,"target":34963},{"buffer":0,"byteOffset":8544,"byteLength":4080,"target":34962},{"buffer":0,"byteOffset":12624,"byteLength":4080,"target":34962},{"buffer":0,"byteOffset":16704,"byteLength":2720,"target":34962},{"buffer":0,"byteOffset":19424,"byteLength":528,"target":34963},{"buffer":0,"byteOffset":19952,"byteLength":1008,"target":34962},{"buffer":0,"byteOffset":20960,"byteLength":1008,"target":34962},{"buffer":0,"byteOffset":21968,"byteLength":672,"target":34962},{"buffer":0,"byteOffset":22640,"byteLength":528,"target":34963},{"buffer":0,"byteOffset":23168,"byteLength":1152,"target":34962},{"buffer":0,"byteOffset":24320,"byteLength":1152,"target":34962},{"buffer":0,"byteOffset":25472,"byteLength":768,"target":34962},{"buffer":0,"byteOffset":26240,"byteLength":4128,"target":34963},{"buffer":0,"byteOffset":30368,"byteLength":8184,"target":34962},{"buffer":0,"byteOffset":38552,"byteLength":8184,"target":34962},{"buffer":0,"byteOffset":46736,"byteLength":5456,"target":34962},{"buffer":0,"byteOffset":52192,"byteLength":3840,"target":34963},{"buffer":0,"byteOffset":56032,"byteLength":7680,"target":34962},{"buffer":0,"byteOffset":63712,"byteLength":7680,"target":34962},{"buffer":0,"byteOffset":71392,"byteLength":5120,"target":34962},{"buffer":0,"byteOffset":76512,"byteLength":336,"target":34963},{"buffer":0,"byteOffset":76848,"byteLength":600,"target":34962},{"buffer":0,"byteOffset":77448,"byteLength":600,"target":34962},{"buffer":0,"byteOffset":78048,"byteLength":400,"target":34962},{"buffer":0,"byteOffset":78448,"byteLength":11664,"target":34963},{"buffer":0,"byteOffset":90112,"byteLength":7152,"target":34962},{"buffer":0,"byteOffset":97264,"byteLength":7152,"target":34962},{"buffer":0,"byteOffset":104416,"byteLength":4768,"target":34962},{"buffer":0,"byteOffset":109184,"byteLength":24,"target":34963},{"buffer":0,"byteOffset":109208,"byteLength":48,"target":34962},{"buffer":0,"byteOffset":109256,"byteLength":48,"target":34962},{"buffer":0,"byteOffset":109304,"byteLength":32,"target":34962}],"textures":[{"sampler":0,"source":0},{"sampler":0,"source":1}],"images":[{"uri":"icon 1.png","mimeType":"image/png"},{"uri":"icon.png","mimeType":"image/png"}],"samplers":[{"wrapS":10497,"wrapT":10497}],"scene":0,"scenes":[{"nodes":[0,8,9],"name":"Project Name"}],"extensionsUsed":["KHR_texture_transform"],"buffers":[{"byteLength":109336,"uri":"ProjectName.bin"}]}